<?xml version="1.0" encoding="UTF-8"?>
<svg id="_レイヤー_1" data-name=" レイヤー 1" xmlns="http://www.w3.org/2000/svg" viewBox="0 0 672.27 188.82">
  <defs>
    <style>
      .cls-1 {
        fill: #fff;
      }

      .cls-2 {
        letter-spacing: 0em;
      }

      .cls-3 {
        letter-spacing: -.23em;
      }

      .cls-4 {
        letter-spacing: -.13em;
      }

      .cls-5 {
        letter-spacing: -.31em;
      }

      .cls-6 {
        letter-spacing: 0em;
      }

      .cls-7 {
        font-family: ATC-65b0898f5408621030d530a930f330c82031-90ms-RKSJ-H, ATC-65b0898f5408621030d530a930f330c82031;
        font-size: 70.87px;
      }

      .cls-8 {
        letter-spacing: 0em;
      }
    </style>
  </defs>
  <path d="M211.66,1.38v187.44H.67V1.37s210.98,0,210.98,0h0ZM36.39,77.18l.4-5.58c-4.63-7.01-13.23.64-9.75,13.01,2.08,7.39,7.91,3.94,7.38,15.34-.53,11.38-5.84,4.42-8.13-.72l-.69,6.87c4.11,2.78,12.18,3.36,12.17-8.94,0-14.38-11.41-9.16-8.19-23.55,2.46-6.4,6.54,4.19,6.79,3.57h0ZM57.3,107.49l-8.42-38.55-8.42,38.56h4.04c-2.55-10.64,3.41-9.92,7.11-9.73l1.06.91,1.37,8.64,3.28.18h0ZM98.41,107.5c.71-1.29-6.31-34.3-6.9-36.19-.53-1.71-.62-2.91-1.86-2.4l-7.42,38.58h4.04c-1.08-4.05-.91-8.34.67-11.72l6.82.15c.56,2.38,1.04,9.78,1.92,10.95.54.72,2.51,1.01,2.72.63h0ZM112.58,97.85c-1.81-7.86-3.37-19.39-5.56-26.54-.53-1.72-.63-2.91-1.86-2.39l-3.37,38.58h3.37c-1.22-6.48-.76-15.86.07-22.6.2-1.62.25-3.32,1.28-3.58l4.73,26.18c1.24.52,1.33-.66,1.86-2.39,1.69-5.53,2.87-14.78,4.71-20.64.43-1.36-.07-2.47,1.51-1.77l1.07,24.83,2.99-.73c-1.29-10.85-1.3-22.1-2.02-33.09-.13-2.01-.09-3.51-1.03-4.78l-7.74,28.93ZM180.65,107.5l-7.75-38.56-8.42,38.56h4.04c-1.37-2.28.55-16.31,1.09-16.61l5.68.71,2.77,15.7,2.6.2ZM60.57,70.49l-3.95.49,8.07,35.88,1.39-.17,4.69-18.48,2.75,19.23,1.96.05,7.43-37.2-2.62.15-5.13,28.8-4.45-28.81-3.3-.14c-.26,4.56,1.94,8.51,1.82,12.87-.05,1.67-2.44,15.83-2.84,16.07l-2.67-9.7-3.15-19.06h0ZM130.77,70.29h-4.71c.42,2.63,1.47.86,1.86,5.09.93,10.09-2.28,29.78,4.58,32.03,2.73.9,6.82.64,8.32-4.88.28-1.06,1.42-8.78,1.42-9.5v-22.74h-2.02v26.88c0,8.43-9.44,10.16-9.44,1.38v-28.25h0ZM156.72,70.29c-3.05-1.05-7.24.76-10.45,0-.08,1.44,1.35,2.86,1.35,3.44v33.76h2.69c.78-3.99-2.26-16.59,1.02-16.6,5.01,4.73,2.56,20.69,9.77,16.58l-6.07-15.83v-2.05c5.51.66,5.84-17.89,1.69-19.31h0Z"/>
  <polygon class="cls-1" points=".67 188.82 0 188.82 0 0 211.66 0 211.66 1.38 .67 1.37 .67 188.82"/>
  <path class="cls-1" d="M60.57,70.49l3.15,19.06,2.67,9.7c.4-.24,2.8-14.41,2.84-16.07.12-4.36-2.08-8.31-1.82-12.87l3.3.14,4.45,28.81,5.13-28.8,2.62-.15-7.43,37.2-1.96-.05-2.75-19.23-4.69,18.48-1.39.17-8.07-35.88,3.95-.49h0Z"/>
  <path class="cls-1" d="M112.58,97.85l7.74-28.93c.94,1.27.9,2.78,1.03,4.78.71,11,.73,22.24,2.02,33.09l-2.99.73-1.07-24.83c-1.58-.7-1.08.41-1.51,1.77-1.84,5.86-3.02,15.12-4.71,20.64-.53,1.72-.62,2.91-1.86,2.39l-4.73-26.18c-1.02.27-1.08,1.96-1.28,3.58-.82,6.74-1.28,16.12-.07,22.59h-3.37l3.37-38.57c1.23-.52,1.33.67,1.86,2.39,2.19,7.16,3.75,18.68,5.56,26.54h0Z"/>
  <path class="cls-1" d="M156.72,70.29c4.14,1.42,3.82,19.97-1.68,19.31v2.05s6.06,15.83,6.06,15.83c-7.21,4.1-4.76-11.85-9.77-16.58-3.28,0-.23,12.61-1.02,16.6h-2.69v-33.77c0-.59-1.42-2.01-1.35-3.44,3.21.76,7.4-1.05,10.45,0h0ZM150.75,73.25c-1.5,1.02-2.5,16.64,1.18,16.31,6.49-.59,6.16-20.7-1.18-16.31Z"/>
  <path class="cls-1" d="M180.65,107.5l-2.6-.2-2.77-15.7-5.68-.71c-.54.3-2.45,14.34-1.09,16.61h-4.04l8.42-38.55,7.75,38.56Z"/>
  <path class="cls-1" d="M130.77,70.29v28.25c0,8.78,9.44,7.05,9.44-1.38v-26.88h2.02v22.74c0,.72-1.13,8.45-1.42,9.5-1.49,5.53-5.59,5.78-8.32,4.88-6.86-2.25-3.65-21.94-4.58-32.03-.39-4.23-1.44-2.47-1.86-5.08h4.71s0-.02,0-.02Z"/>
  <path class="cls-1" d="M57.3,107.49l-3.28-.18-1.37-8.64-1.06-.91c-3.7-.19-9.65-.91-7.11,9.72h-4.04l8.42-38.55,8.42,38.55h0ZM51.9,95.09c-.32-1.5-2.95-18.23-4.04-16.52l-2.7,16.53h6.74s0,0,0,0Z"/>
  <path class="cls-1" d="M98.41,107.5c-.21.38-2.18.09-2.72-.63-.88-1.17-1.36-8.57-1.92-10.95l-6.82-.15c-1.58,3.39-1.74,7.68-.67,11.72h-4.04s7.42-38.58,7.42-38.58c1.23-.52,1.33.69,1.86,2.4.59,1.88,7.61,34.9,6.9,36.19h0ZM93.02,92.33l-3.03-13.74-3.03,13.75h6.06s0,0,0,0Z"/>
  <path class="cls-1" d="M36.39,77.18c-.25.62-4.33-9.97-6.79-3.57-3.22,14.4,8.18,9.18,8.19,23.55,0,12.31-8.06,11.72-12.17,8.94l.69-6.87c2.3,5.13,7.61,12.09,8.13.72.53-11.4-5.3-7.95-7.38-15.34-3.48-12.37,5.12-20.02,9.75-13.01l-.4,5.58h0Z"/>
  <path d="M150.75,73.25c7.33-4.39,7.66,15.71,1.18,16.31-3.68.34-2.68-15.29-1.18-16.31Z"/>
  <path d="M51.9,95.09h-6.74s2.7-16.52,2.7-16.52c1.08-1.71,3.72,15.03,4.04,16.52h0Z"/>
  <polygon points="93.02 92.33 86.96 92.34 89.99 78.59 93.02 92.33"/>
  <text class="cls-7" transform="translate(222.98 117.34)"><tspan class="cls-2" x="0" y="0">ベ</tspan><tspan class="cls-4" x="71.01" y="0">ー</tspan><tspan class="cls-5" x="132.95" y="0">カ</tspan><tspan class="cls-3" x="181.91" y="0">リ</tspan><tspan x="236.69" y="0">ー</tspan><tspan class="cls-6" x="307.56" y="0">沢</tspan><tspan class="cls-8" x="378.43" y="0">村</tspan></text>
</svg>